<?xml version="1.0" encoding="utf-8"?>
<!-- Generator: Adobe Illustrator 16.0.3, SVG Export Plug-In . SVG Version: 6.00 Build 0)  -->
<!DOCTYPE svg PUBLIC "-//W3C//DTD SVG 1.1//EN" "http://www.w3.org/Graphics/SVG/1.1/DTD/svg11.dtd">
<svg version="1.1" id="Layer_2" xmlns="http://www.w3.org/2000/svg" xmlns:xlink="http://www.w3.org/1999/xlink" x="0px" y="0px"
	 width="144px" height="144px" viewBox="0 0 144 144" enable-background="new 0 0 144 144" xml:space="preserve">
<g>
	<path fill="none" stroke="#EE296B" stroke-miterlimit="10" d="M72.516,70.696"/>
	<circle fill="none" stroke="#132F39" stroke-width="5" stroke-miterlimit="10" cx="72.514" cy="70.647" r="49.31"/>
	<g>
		<path fill="#132F39" d="M83.756,111.678c0,0-8.447-10.107-8.396-10.216c4.869,1.468,5.763,1.156,8.729-3.063L83.756,111.678z"/>
		<line fill="none" x1="80.568" y1="102.508" x2="59.097" y2="41.713"/>
		<line fill="none" stroke="#132F39" stroke-width="2" stroke-miterlimit="10" x1="80.568" y1="102.508" x2="59.097" y2="41.713"/>
		<path fill="#132F39" d="M48.835,35.669c1.821,0.172,3.137,0.702,5.624,2.079c2.572,1.42,5.278,4.855,5.278,4.855
			c-1.87-0.501-4.36-1.057-6.768-2.586C50.569,38.491,48.835,35.669,48.835,35.669"/>
		<path fill="#132F39" d="M51.783,44.957c1.624-0.066,2.843,0.241,5.199,1.153c2.434,0.94,5.225,3.639,5.225,3.639
			c-1.705-0.218-3.966-0.407-6.258-1.463C53.649,47.229,51.783,44.957,51.783,44.957"/>
		<path fill="#132F39" d="M55.806,52.697c1.273-0.117,2.247,0.078,4.137,0.707c1.95,0.646,4.25,2.664,4.25,2.664
			c-1.35-0.106-3.135-0.17-4.979-0.913C57.363,54.412,55.806,52.697,55.806,52.697"/>
		<path fill="#132F39" d="M63.354,30.354c-1.314,1.27-2.008,2.505-3.099,5.137c-1.119,2.713-1.085,7.085-1.085,7.085
			c1.146-1.558,2.746-3.548,3.669-6.241C63.758,33.641,63.354,30.354,63.354,30.354"/>
		<path fill="#132F39" d="M66.852,39.448c-1.31,0.959-2.068,1.962-3.34,4.146c-1.31,2.253-1.805,6.104-1.805,6.104
			c1.195-1.234,2.841-2.794,3.973-5.051C66.812,42.388,66.852,39.448,66.852,39.448"/>
		<path fill="#132F39" d="M68.544,48.003c-1.065,0.706-1.703,1.466-2.785,3.138c-1.119,1.722-1.658,4.733-1.658,4.733
			c0.985-0.924,2.345-2.089,3.323-3.824C68.403,50.316,68.544,48.003,68.544,48.003"/>
	</g>
	<g>
		<path fill="#132F39" d="M61.273,111.139c0,0,8.448-10.106,8.397-10.217c-4.87,1.469-5.762,1.156-8.729-3.062L61.273,111.139z"/>
		<line fill="none" x1="64.461" y1="101.968" x2="85.934" y2="41.173"/>
		<line fill="none" stroke="#132F39" stroke-width="2" stroke-miterlimit="10" x1="64.461" y1="101.968" x2="85.934" y2="41.173"/>
		<path fill="#132F39" d="M96.193,35.129c-1.82,0.172-3.137,0.702-5.623,2.079c-2.572,1.42-5.278,4.855-5.278,4.855
			c1.87-0.501,4.36-1.057,6.769-2.586C94.46,37.951,96.193,35.129,96.193,35.129"/>
		<path fill="#132F39" d="M93.246,44.417c-1.624-0.066-2.844,0.241-5.199,1.153c-2.434,0.94-5.225,3.639-5.225,3.639
			c1.705-0.218,3.966-0.407,6.258-1.463C91.38,46.689,93.246,44.417,93.246,44.417"/>
		<path fill="#132F39" d="M89.225,52.157c-1.272-0.117-2.248,0.078-4.138,0.707c-1.95,0.646-4.25,2.664-4.25,2.664
			c1.351-0.106,3.136-0.17,4.979-0.913C87.666,53.872,89.225,52.157,89.225,52.157"/>
		<path fill="#132F39" d="M81.675,29.814c1.314,1.27,2.009,2.505,3.099,5.137c1.119,2.713,1.086,7.085,1.086,7.085
			c-1.146-1.558-2.746-3.548-3.67-6.241C81.271,33.101,81.675,29.814,81.675,29.814"/>
		<path fill="#132F39" d="M78.178,38.908c1.311,0.959,2.068,1.962,3.34,4.146c1.312,2.253,1.807,6.104,1.807,6.104
			c-1.195-1.234-2.842-2.794-3.975-5.051C78.217,41.848,78.178,38.908,78.178,38.908"/>
		<path fill="#132F39" d="M76.484,47.463c1.064,0.706,1.703,1.466,2.785,3.138c1.119,1.722,1.657,4.733,1.657,4.733
			c-0.983-0.924-2.345-2.089-3.321-3.824C76.626,49.776,76.484,47.463,76.484,47.463"/>
	</g>
</g>
</svg>
