<?xml version="1.0" encoding="utf-8"?>
<!-- Generator: Adobe Illustrator 16.0.3, SVG Export Plug-In . SVG Version: 6.00 Build 0)  -->
<!DOCTYPE svg PUBLIC "-//W3C//DTD SVG 1.1//EN" "http://www.w3.org/Graphics/SVG/1.1/DTD/svg11.dtd">
<svg version="1.1" id="Layer_2" xmlns="http://www.w3.org/2000/svg" xmlns:xlink="http://www.w3.org/1999/xlink" x="0px" y="0px"
	 width="144px" height="144px" viewBox="0 0 144 144" enable-background="new 0 0 144 144" xml:space="preserve">
<circle fill="none" stroke="#132F39" stroke-width="5" stroke-miterlimit="10" cx="71.461" cy="73.647" r="49.31"/>
<path fill="none" stroke="#EE296B" stroke-miterlimit="10" d="M79.188,90.209"/>
<path fill="none" stroke="#132F39" stroke-width="3" stroke-miterlimit="10" d="M61.799,62.931c0,0,10.125-9.2,19.992,0.257
	c8.841-0.035,16.447-0.103,16.447-0.103l-0.075-8.812c-0.438-4.551-1.782-8.468-8.767-8.834c0,0-18.405,0.099-30.562-0.103
	s-14.3,4.085-14.013,9.114l-0.137,8.566L61.799,62.931z"/>
<path fill="#132F39" d="M92.378,54.4c0,2.218-1.813,4.032-4.032,4.032h-1.849c-2.218,0-4.032-1.814-4.032-4.032v-0.51
	c0-2.218,1.814-4.032,4.032-4.032h1.849c2.219,0,4.032,1.814,4.032,4.032V54.4z"/>
<path fill="none" stroke="#132F39" stroke-width="3" stroke-miterlimit="10" d="M83.607,68.229c0.836,1.743,1.313,3.688,1.313,5.75
	c0,7.361-5.969,13.33-13.33,13.33c-7.362,0-13.329-5.969-13.329-13.33c0-2.042,0.473-3.973,1.295-5.704l-14.174,0.027l0.201,24.919
	c0,0,1.407,8.239,8.139,8.741h35.875c0,0,6.932-0.804,8.338-8.44V68.202L83.607,68.229z"/>
<line fill="none" x1="59.561" y1="68.275" x2="83.607" y2="68.229"/>
<circle fill="#132F39" cx="71.327" cy="73.527" r="9.249"/>
</svg>
