<?xml version="1.0" encoding="utf-8"?>
<!-- Generator: Adobe Illustrator 16.0.3, SVG Export Plug-In . SVG Version: 6.00 Build 0)  -->
<!DOCTYPE svg PUBLIC "-//W3C//DTD SVG 1.1//EN" "http://www.w3.org/Graphics/SVG/1.1/DTD/svg11.dtd">
<svg version="1.1" id="Layer_1" xmlns="http://www.w3.org/2000/svg" xmlns:xlink="http://www.w3.org/1999/xlink" x="0px" y="0px"
	 width="144px" height="144px" viewBox="0 0 144 144" enable-background="new 0 0 144 144" xml:space="preserve">
<path fill="none" stroke="#EE296B" stroke-miterlimit="10" d="M74.363,71.345"/>
<circle fill="none" stroke="#132F39" stroke-width="5" stroke-miterlimit="10" cx="71.944" cy="72.647" r="49.31"/>
<g>
	<g>
		<path fill="#132F39" d="M89.027,98.986H51.821v-0.732c1.013-0.193,1.955-0.512,2.827-0.951c0.87-0.438,1.59-1.049,2.158-1.828
			c0.202-0.293,0.365-0.721,0.486-1.281c0.121-0.56,0.233-1.207,0.335-1.938c0.101-0.729,0.172-1.498,0.213-2.303
			c0.039-0.807,0.061-1.6,0.061-2.379c0-0.686,0.01-1.609,0.03-2.781c0.02-1.168,0.04-2.449,0.061-3.84
			c0.021-1.393,0.031-2.816,0.031-4.279c0-1.512,0-2.928,0-4.245V58.16c0-0.877-0.011-1.779-0.031-2.706
			c-0.021-0.926-0.061-1.804-0.121-2.634c-0.062-0.829-0.163-1.573-0.305-2.231c-0.143-0.659-0.335-1.134-0.577-1.427
			c-0.607-0.78-1.257-1.28-1.946-1.5c-0.688-0.219-1.58-0.427-2.675-0.622v-0.732h33.558l4.135,12.072l-0.604,0.366
			c-3.282-4.926-6.362-8.243-9.241-9.95c-0.688-0.389-1.965-0.732-3.83-1.025c-1.861-0.292-4.133-0.438-6.808-0.438
			c-0.851,0-1.732,0.037-2.645,0.11c-0.913,0.073-1.571,0.159-1.977,0.256c-0.082,0.781-0.152,2.39-0.213,4.829
			c-0.06,2.439-0.091,5.269-0.091,8.487c0,1.854,0,3.414,0,4.682c0,1.269,0.01,2.305,0.031,3.109c0.02,0.805,0.03,1.427,0.03,1.865
			c0,0.392,0,0.658,0,0.805c0.201,0,0.607,0,1.216,0c0.607,0,1.308-0.024,2.098-0.073c0.79-0.049,1.58-0.11,2.37-0.184
			c0.79-0.074,1.448-0.183,1.976-0.329c1.217-0.341,2.229-0.806,3.04-1.39c0.812-0.586,1.467-1.292,1.977-2.122
			c0.508-0.829,0.91-1.793,1.219-2.89c0.303-1.097,0.578-2.329,0.816-3.695h0.729V83.84h-0.729c-0.32-1.561-0.816-3.17-1.486-4.828
			c-0.668-1.658-1.367-2.9-2.101-3.732c-0.646-0.682-1.433-1.24-2.34-1.682c-0.911-0.438-1.976-0.707-3.191-0.805
			c-0.607-0.049-1.115-0.086-1.52-0.109c-0.405-0.021-0.811-0.037-1.216-0.037c-0.365,0-0.771,0-1.216,0c-0.405,0-0.933,0-1.58,0
			c-0.082,0.688-0.121,1.686-0.121,3c0,1.316,0,2.686,0,4.102c0,0.633,0,1.361,0,2.191c0,0.828,0,1.658,0,2.486
			c0,0.781,0.01,1.525,0.03,2.232s0.031,1.305,0.031,1.793c0.039,1.561,0.11,3.035,0.213,4.426c0.101,1.391,0.334,2.426,0.698,3.109
			c0.364,0.682,1.236,1.17,2.614,1.463c1.377,0.291,2.877,0.439,4.5,0.439c0.688,0,1.57-0.023,2.646-0.074
			c1.073-0.049,2.199-0.17,3.375-0.365c1.298-0.193,2.492-0.572,3.587-1.133c1.096-0.562,2.146-1.355,3.161-2.379
			c1.015-1.025,1.996-2.279,2.948-3.771c0.952-1.484,1.934-3.277,2.947-5.377l0.668,0.221L89.027,98.986z"/>
	</g>
</g>
<g id="Layer_3">
</g>
</svg>
