<?xml version="1.0" encoding="utf-8"?>
<!-- Generator: Adobe Illustrator 16.0.3, SVG Export Plug-In . SVG Version: 6.00 Build 0)  -->
<!DOCTYPE svg PUBLIC "-//W3C//DTD SVG 1.1//EN" "http://www.w3.org/Graphics/SVG/1.1/DTD/svg11.dtd">
<svg version="1.1" id="Capa_1" xmlns="http://www.w3.org/2000/svg" xmlns:xlink="http://www.w3.org/1999/xlink" x="0px" y="0px"
	 width="44.236px" height="44.236px" viewBox="0 0 44.236 44.236" enable-background="new 0 0 44.236 44.236" xml:space="preserve">
<g>
	<path fill="#F7F7F7" d="M22.118,44.236C9.922,44.236,0,34.314,0,22.118S9.922,0,22.118,0s22.118,9.922,22.118,22.118
		S34.315,44.236,22.118,44.236z M22.118,1.5C10.75,1.5,1.5,10.749,1.5,22.118s9.25,20.618,20.618,20.618
		c11.369,0,20.618-9.249,20.618-20.618S33.488,1.5,22.118,1.5z"/>
	<path fill="#F7F7F7" d="M22.119,31.924c-0.19,0-0.384-0.071-0.529-0.219l-6.533-6.515c-0.082-0.075-2.398-2.272-2.398-4.89
		c0-3.21,1.901-5.127,5.087-5.127c1.816,0,3.517,1.438,4.376,2.304c0.859-0.866,2.56-2.304,4.376-2.304
		c3.186,0,5.087,1.917,5.087,5.127c0,2.615-2.317,4.812-2.417,4.904l-6.518,6.498C22.502,31.851,22.311,31.924,22.119,31.924z
		 M17.743,16.676c-1.637,0-3.587,0.631-3.587,3.629c0,1.956,1.922,3.789,1.941,3.81l6.021,6.003l6.005-5.987
		c0.036-0.032,1.958-1.865,1.958-3.823c0-2.998-1.951-3.628-3.587-3.628c-1.52,0-3.253,1.723-3.794,2.386
		c-0.285,0.35-0.88,0.35-1.164,0C20.997,18.397,19.262,16.676,17.743,16.676z"/>
</g>
</svg>
