<?xml version="1.0" encoding="utf-8"?>
<!-- Generator: Adobe Illustrator 16.0.3, SVG Export Plug-In . SVG Version: 6.00 Build 0)  -->
<!DOCTYPE svg PUBLIC "-//W3C//DTD SVG 1.1//EN" "http://www.w3.org/Graphics/SVG/1.1/DTD/svg11.dtd">
<svg version="1.1" id="Capa_1" xmlns="http://www.w3.org/2000/svg" xmlns:xlink="http://www.w3.org/1999/xlink" x="0px" y="0px"
	 width="44.236px" height="44.236px" viewBox="0 0 44.236 44.236" enable-background="new 0 0 44.236 44.236" xml:space="preserve">
<path fill="#132F39" d="M22.118,44.236C9.922,44.236,0,34.314,0,22.118S9.922,0,22.118,0s22.118,9.922,22.118,22.118
	S34.315,44.236,22.118,44.236z M22.118,1.5C10.75,1.5,1.5,10.749,1.5,22.118s9.25,20.618,20.618,20.618
	c11.369,0,20.618-9.249,20.618-20.618S33.488,1.5,22.118,1.5z"/>
<path fill="#132F39" d="M26.497,15.174c-1.814,0-3.517,1.438-4.376,2.306c-0.857-0.866-2.56-2.306-4.376-2.306
	c-3.186,0-5.087,1.917-5.087,5.127c0,2.617,2.316,4.814,2.398,4.892l6.531,6.515c0.146,0.147,0.341,0.219,0.529,0.219
	c0.192,0,0.383-0.07,0.53-0.221l6.518-6.498c0.102-0.092,2.417-2.289,2.417-4.903C31.584,17.091,29.682,15.174,26.497,15.174z"/>
</svg>
